<mxfile modified="2021-07-08T15:00:45.665Z" host="app.diagrams.net" agent="5.0 (Windows NT 10.0; Win64; x64) AppleWebKit/537.36 (KHTML, like Gecko) Chrome/91.0.4472.124 Safari/537.36" etag="y-6JVVQej7r9QSSjtvpM" version="14.4.7" type="github">
  <diagram id="Ht1M8jgEwFfnCIfOTk4-" name="Page-1">
    <mxGraphModel dx="1108" dy="450" grid="1" gridSize="10" guides="1" tooltips="1" connect="1" arrows="1" fold="1" page="1" pageScale="1" pageWidth="1169" pageHeight="827" math="0" shadow="0">
      <root>
        <mxCell id="0" />
        <mxCell id="PR7YXwV2LuLtOnHarGue-6" value="AWS-AZ" parent="0" />
        <mxCell id="PR7YXwV2LuLtOnHarGue-8" value="AWS Cloud Account" style="points=[[0,0],[0.25,0],[0.5,0],[0.75,0],[1,0],[1,0.25],[1,0.5],[1,0.75],[1,1],[0.75,1],[0.5,1],[0.25,1],[0,1],[0,0.75],[0,0.5],[0,0.25]];outlineConnect=0;gradientColor=none;html=1;whiteSpace=wrap;fontSize=12;fontStyle=0;shape=mxgraph.aws4.group;grIcon=mxgraph.aws4.group_aws_cloud_alt;strokeColor=#232F3E;fillColor=none;verticalAlign=top;align=left;spacingLeft=30;fontColor=#232F3E;dashed=0;" vertex="1" parent="PR7YXwV2LuLtOnHarGue-6">
          <mxGeometry x="40" y="70" width="570" height="340" as="geometry" />
        </mxCell>
        <mxCell id="PR7YXwV2LuLtOnHarGue-5" value="AWS-REGION" parent="0" />
        <mxCell id="PR7YXwV2LuLtOnHarGue-4" value="AWS-ACCOUNT" parent="0" />
        <mxCell id="PR7YXwV2LuLtOnHarGue-10" value="Region" style="points=[[0,0],[0.25,0],[0.5,0],[0.75,0],[1,0],[1,0.25],[1,0.5],[1,0.75],[1,1],[0.75,1],[0.5,1],[0.25,1],[0,1],[0,0.75],[0,0.5],[0,0.25]];outlineConnect=0;gradientColor=none;html=1;whiteSpace=wrap;fontSize=12;fontStyle=0;shape=mxgraph.aws4.group;grIcon=mxgraph.aws4.group_region;strokeColor=#147EBA;fillColor=none;verticalAlign=top;align=left;spacingLeft=30;fontColor=#147EBA;dashed=1;" vertex="1" parent="PR7YXwV2LuLtOnHarGue-4">
          <mxGeometry x="70" y="130" width="500" height="240" as="geometry" />
        </mxCell>
        <mxCell id="PR7YXwV2LuLtOnHarGue-11" value="Availability Zone" style="fillColor=none;strokeColor=#147EBA;dashed=1;verticalAlign=top;fontStyle=0;fontColor=#147EBA;" vertex="1" parent="PR7YXwV2LuLtOnHarGue-4">
          <mxGeometry x="110" y="185" width="430" height="155" as="geometry" />
        </mxCell>
      </root>
    </mxGraphModel>
  </diagram>
</mxfile>
